<?xml version="1.0" encoding="UTF-8"?><svg id="_イヤー_2" xmlns="http://www.w3.org/2000/svg" viewBox="0 0 181.51 147.48"><defs><style>.cls-1{fill:#0c3249;}</style></defs><g id="_イヤー_1-2"><path class="cls-1" d="M181.34,17.63c.04-.06,.09-.12,.13-.17-5.32,2.36-10.98,4.08-16.86,5.15-1.44,.23-2.88,.45-4.34,.58,6.02-3.66,10.86-9,14.01-15.34,.84-1.63,1.64-3.29,2.24-5.03-.04,.02-.09,.04-.13,.07,.02-.06,.05-.11,.07-.17-7.19,4.27-15.16,7.36-23.64,9.03-6.79-7.23-16.47-11.76-27.18-11.76-20.56,0-37.23,16.67-37.23,37.23,0,2.65,.31,5.23,.84,7.73,.04,.25,.06,.5,.11,.75-27.05-1.36-51.41-12.87-69.37-30.78-2.53-2.55-4.96-5.23-7.24-8.06l-.02,.03s-.06-.06-.08-.09c-3.21,5.5-5.04,11.89-5.04,18.72,0,10.59,4.47,20.11,11.57,26.9,1.49,1.46,3.08,2.85,4.82,4.08-6.04-.22-11.72-1.88-16.69-4.64,0,.16,0,.31,0,.47,0,15,8.94,27.83,21.72,33.72,2.52,1.19,5.14,2.2,7.95,2.82-3.07,.82-6.28,1.27-9.61,1.27-1.94,0-3.83-.19-5.68-.48-.4-.08-.82-.12-1.22-.23,0,.02,.02,.04,.02,.05-.04,0-.09,0-.13-.02,4.15,12.95,15.21,22.81,28.83,25.27,1.91,.37,3.86,.59,5.85,.66-12.72,9.94-28.74,15.87-46.14,15.87-2.51,0-4.98-.19-7.43-.43-.46-.07-.93-.1-1.39-.18,.06,.04,.13,.07,.19,.11-.08,0-.17,0-.25-.01,16.47,10.56,36.04,16.73,57.07,16.73,33.51,0,59.57-13.6,77.46-33.24,.15-.17,.31-.33,.47-.51,1.93-2.14,3.75-4.36,5.48-6.63,.41-.54,.84-1.08,1.24-1.63,1.46-2,2.84-4.05,4.16-6.13,.53-.84,1.06-1.66,1.56-2.51,1.17-1.97,2.26-3.97,3.3-6,.48-.93,.96-1.85,1.41-2.8,1.04-2.17,1.99-4.37,2.88-6.59,.3-.75,.61-1.48,.89-2.23,1.02-2.69,1.91-5.42,2.72-8.15,.06-.22,.14-.43,.19-.65,2.75-9.6,4.16-19.37,4.16-28.87,0-1.61-.03-3.22-.11-4.82,5.77-4.17,10.9-9.18,15.28-14.79,1.15-1.43,2.28-2.87,3.34-4.38-.06,.03-.12,.05-.18,.07Z"/></g></svg>