<?xml version="1.0" encoding="UTF-8"?><svg id="_イヤー_2" xmlns="http://www.w3.org/2000/svg" viewBox="0 0 215.37 148"><defs><style>.cls-1{fill:#0c3249;}</style></defs><g id="_イヤー_1-2"><path class="cls-1" d="M211.28,25.71c-2.36-13.73-11.03-22.31-24.8-23.28C160.16,.58,137.58,0,106.39,0S55.05,.47,28.94,2.38C15.2,3.38,6.22,12.27,3.99,25.68c-5.32,32.04-5.32,64.09,0,96.13,2.23,13.41,11.3,22.41,24.97,23.25,26.34,1.62,52.72,2.93,79.08,2.94,26.15,0,52.32-.19,78.45-2.93,12.85-1.35,22.55-9.66,24.56-21.41,5.59-32.63,5.84-65.29,.23-97.95ZM86.1,106.53V41c19.21,11.05,37.37,21.5,56.93,32.75-19.41,11.17-37.66,21.68-56.93,32.77Z"/></g></svg>