<?xml version="1.0" encoding="UTF-8"?><svg id="_イヤー_2" xmlns="http://www.w3.org/2000/svg" viewBox="0 0 152.27 172"><defs><style>.cls-1{fill:#0c3249;}</style></defs><g id="_イヤー_1-2"><g><path class="cls-1" d="M152.27,15.38c.04-7.12-4.19-15.38-10.7-15.38H53.76c-11.79,0-24.24,14.34-32.06,22.26C-4.28,48.58,.48,37.18,.14,73.96c-.26,27.9-.07,55.8-.04,83.7,.01,11.26,3.17,14.34,14.49,14.34,41.15,0,82.29,0,123.44,0,10.81,0,14.09-3.3,14.09-14.15,0-47.49-.13-94.98,.15-142.46Zm-21.3,130.17c0,2.97,.03,5.42-4.19,5.4-34.4-.13-68.8-.17-103.2-.17-2.5,0-2.13-1.17-2.13-5.93,0-29.07-.1-58.14,.13-87.21,.02-2.8,1.37-6.22,3.27-8.26,7.82-8.38,15.93-16.5,24.3-24.34,2.06-1.93,5.47-3.4,8.27-3.43,22.73-.27,45.47-.07,68.21-.23,4.2-.03,5.4,1.45,5.39,5.52-.12,39.55-.08,79.1-.05,118.65Z"/><path class="cls-1" d="M67.04,35.29c-5.05-.08-8.26,3.3-8.45,9.22-.14,4.31-.03,8.62-.03,14.17-5.58,0-10.29-.3-14.95,.08-5.71,.46-8.75,3.71-8.57,8.57,.21,5.65,3.8,8.09,8.89,8.27,7.48,.27,14.99,.29,22.48,.03,5.68-.19,8.66-3.28,8.83-8.98,.22-7.49,.2-14.99,0-22.48-.15-5.63-3.3-8.79-8.19-8.86Z"/></g></g></svg>