<?xml version="1.0" encoding="UTF-8"?><svg id="_イヤー_2" xmlns="http://www.w3.org/2000/svg" viewBox="0 0 169.12 172"><defs><style>.cls-1{fill:#0c3249;}</style></defs><g id="_イヤー_1-2"><g><path class="cls-1" d="M120.51,0H48.61C21.76,0,0,21.76,0,48.61V123.39c0,26.85,21.76,48.61,48.61,48.61H120.51c26.85,0,48.61-21.76,48.61-48.61V48.61C169.12,21.76,147.36,0,120.51,0ZM17.26,48.61c0-17.29,14.06-31.35,31.35-31.35H120.51c17.29,0,31.35,14.06,31.35,31.35V123.39c0,17.29-14.06,31.35-31.35,31.35H48.61c-17.29,0-31.35-14.06-31.35-31.35V48.61Z"/><path class="cls-1" d="M84.56,130.29c24.42,0,44.29-19.87,44.29-44.29s-19.87-44.3-44.29-44.3-44.29,19.87-44.29,44.3,19.87,44.29,44.29,44.29Zm0-74.78c16.81,0,30.49,13.68,30.49,30.49s-13.68,30.49-30.49,30.49-30.49-13.68-30.49-30.49,13.68-30.49,30.49-30.49Z"/><path class="cls-1" d="M130.15,50.34c5.48,0,9.92-4.44,9.92-9.92s-4.44-9.92-9.92-9.92-9.92,4.44-9.92,9.92,4.44,9.92,9.92,9.92Z"/></g></g></svg>