<?xml version="1.0" encoding="UTF-8"?><svg id="_イヤー_2" xmlns="http://www.w3.org/2000/svg" viewBox="0 0 99.67 172.15"><defs><style>.cls-1{fill:#0c3249;}</style></defs><g id="_イヤー_1-2"><path class="cls-1" d="M64.75,104.42h29.34l4.4-34.11h-33.8v-21.8c0-9.88,2.76-16.63,16.92-16.63h18.06V1.36c-3.1-.41-13.84-1.36-26.33-1.36-7.98,0-15.19,1.51-21.35,4.43-.14,.07-.29,.12-.43,.19-.8,.39-1.55,.84-2.31,1.28-.49,.28-1,.54-1.47,.85-.45,.28-.86,.61-1.3,.91-.73,.51-1.47,1.02-2.15,1.58-.2,.16-.38,.34-.57,.51-.87,.74-1.72,1.5-2.52,2.32-.04,.04-.08,.1-.13,.14-1.85,1.92-3.5,4.04-4.93,6.36-.03,.05-.06,.11-.09,.17-.68,1.11-1.31,2.26-1.89,3.46-.17,.36-.32,.76-.49,1.13-.4,.89-.8,1.79-1.14,2.73-.43,1.19-.82,2.43-1.17,3.7-.04,.13-.09,.26-.12,.4-1.18,4.52-1.81,9.51-1.81,14.98v25.18H0v34.12H29.46v67.73h35.23V104.42h.06Z"/></g></svg>