<?xml version="1.0" encoding="UTF-8"?><svg id="_イヤー_2" xmlns="http://www.w3.org/2000/svg" viewBox="0 0 256.4 14.88"><defs><style>.cls-1{fill:#0c3249;}</style></defs><g id="_イヤー_1-2"><path class="cls-1" d="M0,.36H3.62c.68,0,1.36,.04,2.03,.12,.63,.07,1.24,.24,1.81,.52,.53,.26,.98,.67,1.3,1.17,.36,.63,.54,1.36,.5,2.09,.04,.93-.3,1.84-.94,2.52-.71,.68-1.62,1.11-2.6,1.22l4.02,6.52h-2.06l-3.84-6.36H1.68v6.36H0V.36ZM1.68,6.6h1.5c.47,0,.95-.01,1.45-.04,.47-.02,.93-.11,1.38-.26,.4-.13,.76-.37,1.04-.69,.3-.38,.44-.87,.41-1.35,.02-.43-.08-.85-.3-1.22-.2-.3-.47-.55-.79-.71-.35-.17-.72-.28-1.1-.33-.41-.05-.82-.08-1.23-.08H1.68V6.6Zm14.64,1.82L11.04,.36h2.14l3.98,6.4L21.26,.36h2.02l-5.28,8.06v6.1h-1.68v-6.1Zm20.66,.7c0,.74-.09,1.48-.29,2.2-.18,.67-.49,1.29-.92,1.83-.44,.54-1.01,.98-1.65,1.26-.78,.33-1.63,.49-2.48,.47-.85,.02-1.7-.14-2.48-.47-.64-.28-1.21-.72-1.65-1.26-.43-.54-.74-1.16-.92-1.83-.2-.72-.29-1.46-.29-2.2V.36h1.68V8.88c0,.56,.06,1.12,.18,1.66,.11,.51,.31,.99,.6,1.42,.29,.42,.67,.76,1.12,.99,.55,.26,1.15,.39,1.76,.37,.61,.02,1.21-.11,1.76-.37,.45-.23,.83-.57,1.12-.99,.29-.43,.49-.91,.6-1.42,.12-.54,.18-1.1,.18-1.66V.36h1.68V9.12ZM41.94,.36h2.12l8.2,11.76h.04V.36h1.68V14.52h-2.12L43.66,2.76h-.04V14.52h-1.68V.36Zm23.64,14.52c-1.02,.01-2.03-.18-2.97-.56-.87-.36-1.67-.88-2.34-1.55-.67-.67-1.19-1.48-1.54-2.36-.37-.95-.56-1.95-.55-2.97,0-1.02,.18-2.02,.55-2.97,.35-.88,.87-1.69,1.54-2.36,.67-.67,1.47-1.19,2.34-1.55C63.55,.18,64.56-.01,65.58,0c1.02-.01,2.03,.18,2.97,.56,.87,.36,1.67,.88,2.34,1.55,.67,.67,1.19,1.48,1.54,2.36,.37,.95,.56,1.95,.55,2.97,0,1.02-.18,2.02-.55,2.97-.35,.88-.87,1.69-1.54,2.36-.67,.67-1.47,1.19-2.34,1.55-.94,.38-1.95,.57-2.97,.56Zm0-1.56c.78,0,1.55-.15,2.27-.46,.67-.29,1.27-.72,1.77-1.26,.5-.54,.89-1.18,1.15-1.87,.28-.73,.42-1.51,.41-2.29,0-.78-.13-1.56-.41-2.29-.26-.69-.65-1.33-1.15-1.87-.5-.54-1.1-.97-1.77-1.26-.72-.31-1.49-.47-2.27-.46-.78,0-1.55,.15-2.27,.46-.67,.29-1.27,.72-1.77,1.26-.5,.54-.89,1.18-1.15,1.87-.28,.73-.42,1.51-.41,2.29,0,.78,.13,1.56,.41,2.29,.26,.69,.65,1.33,1.15,1.87,.5,.54,1.1,.97,1.77,1.26,.72,.31,1.49,.47,2.27,.46ZM83.9,2.86c-.26-.44-.65-.78-1.12-.99-.46-.21-.96-.31-1.46-.31-.37,0-.74,.05-1.1,.14-.34,.09-.67,.23-.97,.42-.29,.19-.52,.44-.69,.74-.18,.33-.27,.7-.26,1.08,0,.29,.05,.58,.15,.85,.11,.26,.28,.49,.49,.67,.28,.23,.59,.42,.92,.56,.46,.2,.94,.37,1.42,.52,.55,.17,1.08,.36,1.59,.56,.49,.19,.95,.44,1.36,.76,.39,.31,.72,.7,.94,1.15,.25,.54,.37,1.13,.35,1.73,.02,.64-.13,1.27-.42,1.84-.27,.51-.65,.95-1.11,1.29-.48,.35-1.02,.61-1.59,.76-.61,.17-1.23,.25-1.86,.25-.42,0-.83-.04-1.24-.11-.41-.07-.81-.19-1.19-.34-.38-.15-.74-.36-1.07-.6-.34-.25-.63-.56-.86-.91l1.44-1.18c.3,.51,.74,.92,1.28,1.18,.54,.27,1.14,.4,1.74,.4,.37,0,.74-.06,1.09-.16,.35-.1,.69-.26,.99-.47,.29-.2,.54-.47,.72-.77,.19-.32,.29-.69,.28-1.06,.02-.37-.06-.74-.22-1.07-.16-.29-.4-.53-.68-.71-.36-.23-.75-.41-1.16-.54l-1.64-.56c-.48-.15-.95-.33-1.4-.55-.41-.19-.78-.45-1.11-.76-.32-.31-.57-.67-.74-1.08-.19-.48-.28-.99-.27-1.51-.01-.62,.12-1.23,.4-1.78,.26-.5,.63-.93,1.08-1.27,.46-.35,.99-.61,1.54-.77,.58-.17,1.19-.26,1.8-.26,.75,0,1.49,.12,2.19,.37,.69,.27,1.3,.71,1.77,1.29l-1.38,1.2Zm16.52,6.26c0,.74-.09,1.48-.29,2.2-.18,.67-.49,1.29-.92,1.83-.44,.54-1.01,.98-1.65,1.26-.78,.33-1.63,.49-2.48,.47-.85,.02-1.7-.14-2.48-.47-.64-.28-1.21-.72-1.65-1.26-.43-.54-.74-1.16-.92-1.83-.2-.72-.29-1.46-.29-2.2V.36h1.68V8.88c0,.56,.06,1.12,.18,1.66,.11,.51,.31,.99,.6,1.42,.29,.42,.67,.76,1.12,.99,.55,.26,1.15,.39,1.76,.37,.61,.02,1.21-.11,1.76-.37,.45-.23,.83-.57,1.12-.99,.29-.43,.49-.91,.6-1.42,.12-.54,.18-1.1,.18-1.66V.36h1.68V9.12ZM105.38,.36h1.68V6.48h.24L113.74,.36h2.42l-7,6.46,7.34,7.7h-2.46l-6.74-7.2h-.24v7.2h-1.68V.36Zm14.1,0h8.9V1.92h-7.22V6.36h6.74v1.56h-6.74v5.04h7.58v1.56h-9.26V.36Zm27.48,0h2.12l8.2,11.76h.04V.36h1.68V14.52h-2.12l-8.2-11.76h-.04V14.52h-1.68V.36Zm17.06,0h1.68V14.52h-1.68V.36Zm6.7,0h2.12l8.2,11.76h.04V.36h1.68V14.52h-2.12l-8.2-11.76h-.04V14.52h-1.68V.36Zm23.64,14.52c-1.02,.01-2.03-.18-2.97-.56-.87-.36-1.67-.88-2.34-1.55-.67-.67-1.19-1.48-1.54-2.36-.37-.95-.56-1.95-.55-2.97,0-1.02,.18-2.02,.55-2.97,.35-.88,.87-1.69,1.54-2.36,.67-.67,1.47-1.19,2.34-1.55,.94-.38,1.95-.57,2.97-.56,1.02-.01,2.03,.18,2.97,.56,.87,.36,1.67,.88,2.34,1.55,.67,.67,1.19,1.48,1.54,2.36,.37,.95,.56,1.95,.55,2.97,0,1.02-.18,2.02-.55,2.97-.35,.88-.87,1.69-1.54,2.36-.67,.67-1.47,1.19-2.34,1.55-.94,.38-1.95,.57-2.97,.56Zm0-1.56c.78,0,1.55-.15,2.27-.46,.67-.29,1.27-.72,1.77-1.26,.5-.54,.89-1.18,1.15-1.87,.28-.73,.42-1.51,.41-2.29,0-.78-.13-1.56-.41-2.29-.26-.69-.65-1.33-1.15-1.87-.5-.54-1.1-.97-1.77-1.26-.72-.31-1.49-.47-2.27-.46-.78,0-1.55,.15-2.27,.46-.67,.29-1.27,.72-1.77,1.26-.5,.54-.89,1.18-1.15,1.87-.28,.73-.42,1.51-.41,2.29,0,.78,.13,1.56,.41,2.29,.26,.69,.65,1.33,1.15,1.87,.5,.54,1.1,.97,1.77,1.26,.72,.31,1.49,.47,2.27,.46ZM205.96,.36h2.5l4.8,11.1h.04L218.14,.36h2.44V14.52h-1.68V2.64h-.04l-5.08,11.88h-1.02l-5.08-11.88h-.04V14.52h-1.68V.36Zm19.64,0h1.68V14.52h-1.68V.36Zm10.04,8.06L230.36,.36h2.14l3.98,6.4,4.1-6.4h2.02l-5.28,8.06v6.1h-1.68v-6.1ZM248.8,.36h1.58l6.02,14.16h-1.96l-1.44-3.48h-7.08l-1.46,3.48h-1.9L248.8,.36Zm.76,2.16h-.04l-2.94,6.96h5.78l-2.8-6.96Z"/></g></svg>